<svg width="40" height="34" viewBox="0 0 40 34" fill="none" xmlns="http://www.w3.org/2000/svg" xmlns:xlink="http://www.w3.org/1999/xlink">
<path d="M20.242,13.43C17.188,13.43 14.711,15.905 14.711,18.96C14.711,20.508 15.345,21.903 16.37,22.909C16.75,23.282 16.756,23.893 16.383,24.273C16.009,24.654 15.398,24.66 15.018,24.286C13.639,22.934 12.781,21.048 12.781,18.96C12.781,14.839 16.122,11.5 20.242,11.5C22.327,11.5 24.215,12.358 25.568,13.737C25.941,14.117 25.935,14.728 25.555,15.101C25.174,15.475 24.563,15.469 24.19,15.088C23.185,14.064 21.788,13.43 20.242,13.43Z" clip-rule="evenodd" fill-rule="evenodd" fill="#845317"/>
<path d="M4.941,13.033C8.042,9.225 12.967,5.313 20.074,5.313C24.895,5.313 28.732,7.117 31.675,9.471C32.086,9.801 32.151,10.399 31.819,10.808C31.487,11.216 30.885,11.281 30.473,10.951C27.8,8.813 24.375,7.213 20.074,7.213C13.759,7.213 9.328,10.669 6.43,14.228C4.983,16.005 3.937,17.787 3.254,19.126C2.912,19.794 2.663,20.349 2.5,20.734C2.459,20.83 2.424,20.915 2.394,20.989C2.467,21.159 2.57,21.392 2.703,21.675C3.008,22.326 3.472,23.242 4.102,24.293C5.365,26.402 7.273,29.018 9.871,31.126C10.28,31.459 10.341,32.057 10.006,32.464C9.671,32.87 9.068,32.93 8.659,32.598C5.829,30.302 3.786,27.486 2.456,25.264C1.789,24.15 1.295,23.176 0.967,22.478C0.803,22.129 0.68,21.848 0.598,21.652C0.556,21.554 0.525,21.478 0.503,21.424C0.493,21.398 0.485,21.377 0.479,21.362L0.472,21.345L0.47,21.339L0.469,21.338L0.469,21.337C0.469,21.337 0.469,21.336 1.364,20.999C0.462,20.68 0.462,20.679 0.462,20.679L0.463,20.678L0.464,20.674L0.468,20.663C0.471,20.654 0.476,20.642 0.482,20.626C0.493,20.594 0.511,20.549 0.533,20.491C0.578,20.374 0.645,20.207 0.735,19.997C0.913,19.576 1.182,18.98 1.546,18.266C2.273,16.843 3.388,14.94 4.941,13.033ZM1.364,20.999L0.462,20.68C0.385,20.892 0.388,21.125 0.469,21.336L1.364,20.999Z" clip-rule="evenodd" fill-rule="evenodd" fill="#845317"/>
<path d="M32.906,1.427C33.297,1.081 33.897,1.114 34.247,1.5C36.083,3.529 37.401,5.642 38.259,7.244C38.689,8.046 39.006,8.724 39.216,9.204C39.321,9.445 39.4,9.636 39.453,9.769C39.48,9.835 39.5,9.888 39.514,9.924C39.521,9.942 39.526,9.956 39.53,9.967L39.535,9.979L39.536,9.983L39.537,9.984L39.537,9.985C39.537,9.985 39.537,9.985 38.644,10.305C39.532,10.639 39.532,10.639 39.532,10.639L39.53,10.644L39.526,10.654C39.522,10.663 39.517,10.676 39.511,10.691C39.499,10.723 39.48,10.768 39.457,10.826C39.409,10.941 39.338,11.107 39.245,11.316C39.058,11.735 38.778,12.328 38.401,13.038C37.649,14.455 36.505,16.348 34.939,18.245C31.818,22.03 26.925,25.938 20.045,25.938C16.942,25.938 14.233,25.139 11.909,23.911C11.446,23.666 11.271,23.097 11.518,22.64C11.765,22.182 12.341,22.009 12.803,22.254C14.881,23.352 17.285,24.059 20.045,24.059C26.123,24.059 30.53,20.62 33.468,17.058C34.933,15.282 36.009,13.502 36.72,12.164C37.074,11.496 37.336,10.941 37.508,10.557C37.552,10.459 37.589,10.373 37.621,10.298C37.582,10.201 37.532,10.085 37.474,9.951C37.28,9.51 36.985,8.877 36.581,8.124C35.773,6.614 34.538,4.638 32.832,2.753C32.482,2.367 32.515,1.773 32.906,1.427ZM38.644,10.305L39.532,10.639C39.613,10.428 39.614,10.196 39.537,9.985L38.644,10.305Z" clip-rule="evenodd" fill-rule="evenodd" fill="#845317"/>
<path d="M26.075,9.451C26.568,9.362 27.036,9.72 27.119,10.252C27.183,10.659 27.219,11.081 27.219,11.516C27.219,15.683 24.082,19.063 20.211,19.063C19.807,19.063 19.416,19.024 19.037,18.955C18.544,18.865 18.211,18.362 18.294,17.83C18.377,17.299 18.845,16.94 19.338,17.03C19.626,17.082 19.916,17.11 20.211,17.11C23.081,17.11 25.406,14.605 25.406,11.516C25.406,11.198 25.379,10.885 25.331,10.576C25.248,10.044 25.581,9.541 26.075,9.451Z" clip-rule="evenodd" fill-rule="evenodd" fill="#845317"/>
<path d="M12.781,18.96C12.781,14.839 16.121,11.5 20.242,11.5C22.329,11.5 24.215,12.358 25.568,13.737C25.941,14.117 25.935,14.728 25.555,15.101C25.174,15.475 24.563,15.469 24.19,15.088C23.185,14.064 21.789,13.43 20.242,13.43C17.186,13.43 14.711,15.905 14.711,18.96C14.711,20.506 15.345,21.903 16.37,22.909C16.75,23.282 16.756,23.893 16.383,24.273C16.009,24.654 15.398,24.66 15.018,24.286C13.639,22.933 12.781,21.046 12.781,18.96Z" clip-rule="evenodd" fill-rule="evenodd" fill="#845317"/>
<path d="M36.569,0.775C36.936,1.142 36.936,1.737 36.569,2.104L5.448,33.225C5.081,33.592 4.486,33.592 4.119,33.225C3.752,32.858 3.752,32.263 4.119,31.896L35.239,0.775C35.607,0.408 36.202,0.408 36.569,0.775Z" clip-rule="evenodd" fill-rule="evenodd" fill="#845317"/>
</svg>
